<svg xmlns="http://www.w3.org/2000/svg" viewBox="0 0 512 512"><defs><linearGradient id="g" x1="0" y1="0" x2="1" y2="1"><stop stop-color="#0071e3"/><stop offset="1" stop-color="#5046e5"/></linearGradient></defs><rect width="512" height="512" rx="112" fill="url(#g)"/><circle cx="256" cy="256" r="150" fill="#fff"/><path d="M256 145l42 31-16 50h-52l-16-50zm-86 62l50 16 16 50-40 34-43-29zm172 0l17 71-40 29-40-34 16-50zm-145 100l40 34-9 56-53 2-19-49zm118 34l40-34 41 43-20 49-53-2zm-78 56h38l29 44-48 32-48-32z" fill="#0071e3"/></svg>