<svg xmlns="http://www.w3.org/2000/svg" width="192" height="192" viewBox="0 0 512 512"><defs><linearGradient id="bg" x1="0" y1="0" x2="1" y2="1"><stop stop-color="#0067d8"/><stop offset="1" stop-color="#12a980"/></linearGradient></defs><rect width="512" height="512" rx="104" fill="url(#bg)"/><path d="M180 126h152l-17 102c-8 49-34 83-59 94-25-11-51-45-59-94z" fill="#fff"/><path d="M202 126v-24h108v24M181 149h-39c-8 0-12 9-7 15l42 48M331 149h39c8 0 12 9 7 15l-42 48M222 338h68l22 38H200z" fill="none" stroke="#fff" stroke-width="22" stroke-linecap="round" stroke-linejoin="round"/><path d="M220 203h72M256 169v72" stroke="#12a980" stroke-width="18" stroke-linecap="round"/></svg>